<?xml version="1.0" encoding="UTF-8"?>
<svg id="Layer_1" data-name="Layer 1" xmlns="http://www.w3.org/2000/svg" viewBox="0 0 996.05 998.52">
  <defs>
    <style>
      .cls-1 {
        fill: none;
      }

      .cls-2 {
        fill: #fff;
      }
    </style>
  </defs>
  <path class="cls-2" d="M978.93,473.01c-73.76-47.42-149.09-92.37-223.64-138.66-23.15-14.38-46.32-28.98-69.9-42.56L303.89,55.11c16.95,28.88,35.83,56.39,53.84,84.59,67.99,106.5,136.5,213.87,204.86,320.84,2.43,3.79,4.85,7.82,6.41,12.08l419.16,6.91c-2.78-2.4-6.26-4.61-9.23-6.52ZM426.38,308.85c-11.31-16.07-23-34.03-33.85-51.18l-15.66-23.68-47.51,148.91c-6.22,19.47-12.52,39.46-18.77,59.17-2.35,7.38-4.27,11.67-6.11,18.79-11.68,45.39-30.98,90.55-42.93,136.08,7.15,41.14,14.85,82.26,22.22,123.37,2.52,14,3.75,28.99,7.12,42.85.33,1.34.02,2.59,1.51,3.5l251.37-280.33-117.39-177.48ZM134.86,440.34c-.74-2.67-.87-2.4-1.46-3.82-15.99-38.62-35.18-75.98-50.68-114.82l-3.74-6.27L0,495.37l3.54,15.4,18.92,42.12,1.87.76,110.27-105.14c3.79-4.31,1.32-4.25.26-8.17ZM171.19,488.08c-3.3-2.12-7.18-5.77-10.61-7.86-2.4-1.46-6.85-5.2-9.15-3.46l-71.45,74.52,146.45,65.45,20.27-80.73c-25.14-15.99-50.41-31.81-75.51-47.92ZM989.08,512.82c-102.66-4.47-205.5-9.75-307.9-14.95-32.4-1.65-65.46-5.2-97.95-6.07-7.51-.2-8.19,5.01-12.49,9.54-76.25,80.49-150.19,164.44-224.29,246.39-14.12,15.62-29.6,30.53-42.99,47l-15.56,159.82,708.15-441.4c-2.49,1.37-4.53-.22-6.97-.33ZM228.54,666.39c-1.2-4.52-2.38-11-7.24-12.53l-195.3-92.06c40.58,90.54,79.72,181.72,119.78,272.5,23.71,53.74,48.1,106.77,70.95,160.92l3.68,3.3c1.27-.27,5.88-22.01,6.8-25.19,10.05-35.07,15.95-68.19,22.99-103.94,3.89-19.72,9.57-39.15,11.78-59.25-12.32-47.56-20.93-96.4-33.44-143.75ZM221.99,3.61c-.23-.15-.44-.31-.63-.46-.71-.56-1.05-1.81-1.35-2.45-.09-.19-.17-.33-.26-.38-1.09-.65-2.73-.21-3.81.33-3.97,1.99-13.96,31.27-16.62,37.35-31.6,72.38-63.81,144.67-94.3,217.52-2.28,5.44-7.56,11.64-7.11,17.93,21.02,52.18,44.51,103.26,65.59,155.36,19.03,14.39,39.17,27.5,58.73,41.22,9.87,6.92,23.54,19.06,33.69,24.28,1.03.53,1.85.66,2.98.52,1.67-9.05,3.76-18.38,6.08-27.41,21.04-81.9,42.97-165.61,63.28-246.43,3.78-15.06,8.11-30.14,10.63-45.41L221.99,3.61Z"/>
  <path d="M996.05,513.15l-708.15,441.4,15.56-159.82c13.39-16.47,28.87-31.38,42.99-47,74.1-81.95,148.04-165.9,224.29-246.39,4.3-4.53,4.98-9.74,12.49-9.54,32.49.87,65.55,4.42,97.95,6.07,102.4,5.2,205.24,10.48,307.9,14.95,2.44.11,4.48,1.7,6.97.33Z"/>
  <path d="M988.16,479.53l-419.16-6.91c-1.56-4.26-3.98-8.29-6.41-12.08-68.36-106.97-136.87-214.34-204.86-320.84-18.01-28.2-36.89-55.71-53.84-84.59l381.5,236.68c23.58,13.58,46.75,28.18,69.9,42.56,74.55,46.29,149.88,91.24,223.64,138.66,2.97,1.91,6.45,4.12,9.23,6.52Z"/>
  <path d="M543.77,486.33l-251.37,280.33c-1.49-.91-1.18-2.16-1.51-3.5-3.37-13.86-4.6-28.85-7.12-42.85-7.37-41.11-15.07-82.23-22.22-123.37,11.95-45.53,31.25-90.69,42.93-136.08,1.84-7.12,3.76-11.41,6.11-18.79,6.25-19.71,12.55-39.7,18.77-59.17l47.51-148.91,15.66,23.68c10.85,17.15,22.54,35.11,33.85,51.18l117.39,177.48Z"/>
  <path d="M221.99,3.61c-.23-.15-.44-.31-.63-.46-.71-.56-1.05-1.81-1.35-2.45-.09-.19-.17-.33-.26-.38-1.09-.65-2.73-.21-3.81.33-3.97,1.99-13.96,31.27-16.62,37.35-31.6,72.38-63.81,144.67-94.3,217.52-2.28,5.44-7.56,11.64-7.11,17.93,21.02,52.18,44.51,103.26,65.59,155.36,19.03,14.39,39.17,27.5,58.73,41.22,9.87,6.92,23.54,19.06,33.69,24.28,1.03.53,1.85.66,2.98.52,1.67-9.05,3.76-18.38,6.08-27.41,21.04-81.9,42.97-165.61,63.28-246.43,3.78-15.06,8.11-30.14,10.63-45.41L221.99,3.61Z"/>
  <path d="M26.01,561.8l195.29,92.06c4.86,1.53,6.04,8.01,7.24,12.53,12.51,47.35,21.13,96.19,33.45,143.75-2.21,20.1-7.9,39.53-11.78,59.25-7.04,35.74-12.94,68.87-22.99,103.93-.91,3.19-5.52,24.93-6.8,25.19l-3.68-3.3c-22.84-54.15-47.23-107.18-70.95-160.92-40.06-90.78-79.2-181.96-119.77-272.5Z"/>
  <path d="M133.41,436.53c.59,1.42.72,1.15,1.45,3.82,1.07,3.91,3.54,3.86-.26,8.16l-110.27,105.15-1.87-.76-18.92-42.12-3.55-15.39,78.98-179.95,3.74,6.27c15.51,38.85,34.69,76.2,50.69,114.83Z"/>
  <path d="M160.58,480.23c3.43,2.08,7.31,5.74,10.61,7.86,25.1,16.11,50.37,31.92,75.51,47.92l-20.28,80.73-146.44-65.45,71.45-74.52c2.3-1.73,6.75,2.01,9.15,3.46Z"/>
  <path class="cls-2" d="M219.75.32c.09.05.17.19.26.38l-.26-.38Z"/>
  <line class="cls-1" x1="338.89" y1="175.58" x2="221.99" y2="3.61"/>
</svg>